<svg width="200" height="203" viewBox="0 0 200 203" fill="none" xmlns="http://www.w3.org/2000/svg">
<g filter="url(#filter0_d_170_11)">
<path d="M39.7395 83.4094C35.1539 77.6074 38.7949 69.0296 46.154 68.2978V68.2978C51.6129 67.755 55.4356 62.6536 54.4238 57.262V57.262C53.0597 49.9935 60.27 44.0903 67.1262 46.8623V46.8623C72.2121 48.9185 77.9677 46.178 79.5773 40.9337V40.9337C81.7473 33.8638 90.8751 31.9876 95.6577 37.6283V37.6283C99.2055 41.8126 105.575 42.0607 109.438 38.1651V38.1651C114.645 32.9135 123.599 35.4941 125.212 42.7113V42.7113C126.409 48.065 131.934 51.2449 137.165 49.5906V49.5906C144.216 47.3603 150.945 53.8065 149.02 60.9468V60.9468C147.591 66.2435 151.006 71.6268 156.406 72.5926V72.5926C163.686 73.8946 166.648 82.7296 161.625 88.1573V88.1573C157.899 92.1835 158.421 98.5369 162.753 101.902V101.902C168.594 106.438 167.112 115.638 160.142 118.109V118.109C154.971 119.943 152.481 125.811 154.753 130.803V130.803C157.817 137.534 152.229 144.991 144.909 143.941V143.941C139.479 143.161 134.546 147.2 134.238 152.677V152.677C133.823 160.061 125.41 164.067 119.416 159.734V159.734C114.97 156.521 108.726 157.804 105.908 162.511V162.511C102.109 168.856 92.7977 168.493 89.5039 161.872V161.872C87.0607 156.96 80.9352 155.195 76.2527 158.053V158.053C69.9403 161.906 61.8639 157.258 62.0245 149.864V149.864C62.1437 144.379 57.5403 139.97 52.0659 140.324V140.324C44.686 140.802 39.695 132.933 43.2732 126.461V126.461C45.9275 121.66 43.9007 115.616 38.8886 113.386V113.386C32.1319 110.38 31.3696 101.092 37.5457 97.0243V97.0243C42.127 94.0068 43.1412 87.7132 39.7395 83.4094V83.4094Z" fill="url(#paint0_linear_170_11)"/>
</g>
<defs>
<filter id="filter0_d_170_11" x="7.20107" y="25.0951" width="177.62" height="177.324" filterUnits="userSpaceOnUse" color-interpolation-filters="sRGB">
<feFlood flood-opacity="0" result="BackgroundImageFix"/>
<feColorMatrix in="SourceAlpha" type="matrix" values="0 0 0 0 0 0 0 0 0 0 0 0 0 0 0 0 0 0 127 0" result="hardAlpha"/>
<feOffset dx="-3.84326" dy="13.0671"/>
<feGaussianBlur stdDeviation="11.1454"/>
<feComposite in2="hardAlpha" operator="out"/>
<feColorMatrix type="matrix" values="0 0 0 0 0.0775104 0 0 0 0 0.241623 0 0 0 0 0.157958 0 0 0 0.46 0"/>
<feBlend mode="normal" in2="BackgroundImageFix" result="effect1_dropShadow_170_11"/>
<feBlend mode="normal" in="SourceGraphic" in2="effect1_dropShadow_170_11" result="shape"/>
</filter>
<linearGradient id="paint0_linear_170_11" x1="152.132" y1="38.4189" x2="111.584" y2="148.618" gradientUnits="userSpaceOnUse">
<stop stop-color="#237249"/>
<stop offset="1" stop-color="#35C66B"/>
</linearGradient>
</defs>
</svg>
