<?xml version="1.0" encoding="iso-8859-1"?>
<!-- Generator: Adobe Illustrator 21.0.0, SVG Export Plug-In . SVG Version: 6.00 Build 0)  -->
<svg version="1.1" id="Capa_1" xmlns="http://www.w3.org/2000/svg" xmlns:xlink="http://www.w3.org/1999/xlink" x="0px" y="0px"
	 viewBox="0 0 512 512" style="enable-background:new 0 0 512 512;" xml:space="preserve">
<polygon style="fill:#BFA53A;" points="271.453,20.463 240.547,20.463 230.245,70.638 256,128.177 281.755,70.638 "/>
<path style="fill:#DE2318;" d="M337.853,61.389c-1.793,0-3.581,0.028-5.366,0.081L256,491.536
	c68.38,0,132.668-26.629,181.019-74.981S512,303.916,512,235.536C512,139.511,433.878,61.389,337.853,61.389z"/>
<path style="fill:#FF533E;" d="M174.147,61.389C78.122,61.389,0,139.511,0,235.536c0,68.379,26.629,132.667,74.981,181.019
	C123.333,464.908,187.62,491.536,256,491.536l169.98-238.253L256,81.817C230.902,68.402,202.969,61.389,174.147,61.389z"/>
<path style="fill:#FF7859;" d="M233.972,192.422l-44.204,37.192c-7.01,5.899-11.031,14.527-11.031,23.67s4.021,17.772,11.031,23.67
	l44.203,37.191c13.999,11.779,22.028,29.022,22.028,47.308l92.716-108.169l-92.716-108.169
	C256,163.401,247.971,180.644,233.972,192.422z"/>
<path style="fill:#DE2318;" d="M169.872,205.965l44.203-37.191c6.738-5.669,11.02-14.164,11.02-23.659v-43.446
	c-9.831-3.751-20.176-6.456-30.905-7.971l-92.716,159.584l92.716,198.729c10.034,2.86,20.352,5.048,30.905,6.496v-97.056
	c0-9.495-4.281-17.99-11.02-23.659l-44.203-37.192c-13.477-11.338-22.041-28.329-22.041-47.318S156.395,217.304,169.872,205.965z"/>
<g>
	<path style="fill:#FF2E23;" d="M187.577,168.774c4.042-5.669,6.612-14.164,6.612-23.659V93.7
		c-6.548-0.924-13.238-1.405-20.042-1.405c-79.11,0-143.242,64.132-143.242,143.242c0,102.878,69.024,189.615,163.284,216.476
		v-90.56c0-9.495-2.569-17.99-6.612-23.659l-26.522-37.192c-8.086-11.338-13.224-28.329-13.224-47.318
		c0-18.99,5.139-35.98,13.224-47.318L187.577,168.774z"/>
	<path style="fill:#FF2E23;" d="M332.486,61.47c-26.919,0.816-52.949,7.767-76.486,20.348v409.718
		c60.126,0,116.652-26.629,159.166-74.981c42.515-48.353,65.928-112.64,65.928-181.02C481.095,141.229,414.838,64.197,332.486,61.47
		z"/>
</g>
<g>
	<path style="fill:#FFCE53;" d="M105.998,242.357c-6.035-6.035-15.818-6.035-21.853,0c-6.035,6.035-6.035,15.818,0,21.853
		c6.035,6.035,15.818,6.035,21.853,0l10.927-10.927L105.998,242.357z"/>
	<path style="fill:#FFCE53;" d="M128.628,318.844c-8.534,0-15.453,6.919-15.453,15.453c0,8.534,6.919,15.453,15.453,15.453
		c8.534,0,15.453-6.919,15.453-15.453v-15.453H128.628z"/>
	<path style="fill:#FFCE53;" d="M144.081,172.27c0-8.534-6.919-15.453-15.453-15.453c-8.534,0-15.453,6.919-15.453,15.453
		c0,8.534,6.919,15.453,15.453,15.453h15.453V172.27z"/>
</g>
<g>
</g>
<g>
</g>
<g>
</g>
<g>
</g>
<g>
</g>
<g>
</g>
<g>
</g>
<g>
</g>
<g>
</g>
<g>
</g>
<g>
</g>
<g>
</g>
<g>
</g>
<g>
</g>
<g>
</g>
</svg>
