<svg width="258" height="34" viewBox="0 0 258 34" fill="none" xmlns="http://www.w3.org/2000/svg">
<path d="M12.328 1.368C14.656 1.368 16.684 1.824 18.412 2.736C20.14 3.648 21.484 4.992 22.444 6.768C23.404 8.544 23.884 10.692 23.884 13.212V27H18.052V20.952H6.532V27H0.772V13.212C0.772 10.692 1.252 8.544 2.212 6.768C3.172 4.992 4.516 3.648 6.244 2.736C7.972 1.824 10 1.368 12.328 1.368ZM18.052 16.272V12.672C18.052 10.584 17.536 9.012 16.504 7.956C15.472 6.876 14.068 6.336 12.292 6.336C10.492 6.336 9.076 6.876 8.044 7.956C7.036 9.012 6.532 10.584 6.532 12.672V16.272H18.052ZM44.8683 12.24H34.9323V27H29.3523V7.632H44.8683V12.24ZM57.7805 7.344C59.8445 7.344 61.6445 7.752 63.1805 8.568C64.7165 9.384 65.9045 10.548 66.7445 12.06C67.5845 13.572 68.0045 15.336 68.0045 17.352C68.0045 19.32 67.6085 21.06 66.8165 22.572C66.0245 24.06 64.9085 25.224 63.4685 26.064C62.0285 26.88 60.3725 27.288 58.5005 27.288C56.0285 27.288 54.0965 26.508 52.7045 24.948V33.984H47.0885V17.388C47.0885 15.396 47.5325 13.644 48.4205 12.132C49.3085 10.62 50.5565 9.444 52.1645 8.604C53.7725 7.764 55.6445 7.344 57.7805 7.344ZM57.5285 22.68C58.9925 22.68 60.1805 22.188 61.0925 21.204C62.0045 20.22 62.4605 18.936 62.4605 17.352C62.4605 15.744 62.0045 14.448 61.0925 13.464C60.1805 12.456 58.9925 11.952 57.5285 11.952C56.0645 11.952 54.8765 12.444 53.9645 13.428C53.0765 14.412 52.6325 15.708 52.6325 17.316C52.6325 18.924 53.0765 20.22 53.9645 21.204C54.8525 22.188 56.0405 22.68 57.5285 22.68ZM81.0337 27.288C78.9937 27.288 77.1577 26.868 75.5257 26.028C73.9177 25.164 72.6577 23.976 71.7457 22.464C70.8337 20.952 70.3777 19.236 70.3777 17.316C70.3777 15.396 70.8337 13.68 71.7457 12.168C72.6577 10.656 73.9177 9.48 75.5257 8.64C77.1577 7.776 78.9937 7.344 81.0337 7.344C83.0737 7.344 84.8977 7.776 86.5057 8.64C88.1137 9.48 89.3737 10.656 90.2857 12.168C91.1977 13.68 91.6537 15.396 91.6537 17.316C91.6537 19.236 91.1977 20.952 90.2857 22.464C89.3737 23.976 88.1137 25.164 86.5057 26.028C84.8977 26.868 83.0737 27.288 81.0337 27.288ZM81.0337 22.68C82.4737 22.68 83.6497 22.2 84.5617 21.24C85.4977 20.256 85.9657 18.948 85.9657 17.316C85.9657 15.684 85.4977 14.388 84.5617 13.428C83.6497 12.444 82.4737 11.952 81.0337 11.952C79.5937 11.952 78.4057 12.444 77.4697 13.428C76.5337 14.388 76.0657 15.684 76.0657 17.316C76.0657 18.948 76.5337 20.256 77.4697 21.24C78.4057 22.2 79.5937 22.68 81.0337 22.68ZM95.04 14.616H105.228V19.116H95.04V14.616ZM136.854 17.244C136.854 20.244 135.846 22.62 133.83 24.372C131.838 26.1 128.982 27.096 125.262 27.36V33.984H120.114V27.36C116.394 27.096 113.526 26.112 111.51 24.408C109.518 22.68 108.522 20.292 108.522 17.244C108.522 14.244 109.506 11.916 111.474 10.26C113.466 8.604 116.346 7.644 120.114 7.38V0.287998H125.262V7.38C128.982 7.644 131.838 8.616 133.83 10.296C135.846 11.976 136.854 14.292 136.854 17.244ZM113.958 17.244C113.958 18.972 114.45 20.304 115.434 21.24C116.418 22.176 117.978 22.764 120.114 23.004V11.736C117.978 11.952 116.418 12.516 115.434 13.428C114.45 14.316 113.958 15.588 113.958 17.244ZM125.262 23.004C127.398 22.764 128.958 22.176 129.942 21.24C130.95 20.304 131.454 18.972 131.454 17.244C131.454 15.588 130.95 14.316 129.942 13.428C128.958 12.516 127.398 11.952 125.262 11.736V23.004ZM159.773 7.632V27H154.409V24.732C153.689 25.572 152.801 26.208 151.745 26.64C150.713 27.072 149.609 27.288 148.433 27.288C145.889 27.288 143.861 26.556 142.349 25.092C140.861 23.628 140.117 21.456 140.117 18.576V7.632H145.733V17.748C145.733 20.868 147.041 22.428 149.657 22.428C151.025 22.428 152.117 21.996 152.933 21.132C153.749 20.244 154.157 18.936 154.157 17.208V7.632H159.773ZM165.126 7.632H170.706V15.192H179.13V7.632H184.746V27H179.13V19.764H170.706V27H165.126V7.632ZM209.67 7.632V27H204.306V24.768C202.914 26.448 200.898 27.288 198.258 27.288C196.434 27.288 194.778 26.88 193.29 26.064C191.826 25.248 190.674 24.084 189.834 22.572C188.994 21.06 188.574 19.308 188.574 17.316C188.574 15.324 188.994 13.572 189.834 12.06C190.674 10.548 191.826 9.384 193.29 8.568C194.778 7.752 196.434 7.344 198.258 7.344C200.73 7.344 202.662 8.124 204.054 9.684V7.632H209.67ZM199.23 22.68C200.646 22.68 201.822 22.2 202.758 21.24C203.694 20.256 204.162 18.948 204.162 17.316C204.162 15.684 203.694 14.388 202.758 13.428C201.822 12.444 200.646 11.952 199.23 11.952C197.79 11.952 196.602 12.444 195.666 13.428C194.73 14.388 194.262 15.684 194.262 17.316C194.262 18.948 194.73 20.256 195.666 21.24C196.602 22.2 197.79 22.68 199.23 22.68ZM214.977 7.632H220.557V15.192H228.981V7.632H234.597V27H228.981V19.764H220.557V27H214.977V7.632ZM249.189 27.288C247.125 27.288 245.265 26.868 243.609 26.028C241.977 25.164 240.693 23.976 239.757 22.464C238.845 20.952 238.389 19.236 238.389 17.316C238.389 15.396 238.845 13.68 239.757 12.168C240.693 10.656 241.977 9.48 243.609 8.64C245.265 7.776 247.125 7.344 249.189 7.344C251.229 7.344 253.005 7.776 254.517 8.64C256.053 9.48 257.169 10.692 257.865 12.276L253.509 14.616C252.501 12.84 251.049 11.952 249.153 11.952C247.689 11.952 246.477 12.432 245.517 13.392C244.557 14.352 244.077 15.66 244.077 17.316C244.077 18.972 244.557 20.28 245.517 21.24C246.477 22.2 247.689 22.68 249.153 22.68C251.073 22.68 252.525 21.792 253.509 20.016L257.865 22.392C257.169 23.928 256.053 25.128 254.517 25.992C253.005 26.856 251.229 27.288 249.189 27.288Z" fill="#282113"/>
<path d="M12.328 1.368C14.656 1.368 16.684 1.824 18.412 2.736C20.14 3.648 21.484 4.992 22.444 6.768C23.404 8.544 23.884 10.692 23.884 13.212V27H18.052V20.952H6.532V27H0.772V13.212C0.772 10.692 1.252 8.544 2.212 6.768C3.172 4.992 4.516 3.648 6.244 2.736C7.972 1.824 10 1.368 12.328 1.368ZM18.052 16.272V12.672C18.052 10.584 17.536 9.012 16.504 7.956C15.472 6.876 14.068 6.336 12.292 6.336C10.492 6.336 9.076 6.876 8.044 7.956C7.036 9.012 6.532 10.584 6.532 12.672V16.272H18.052ZM44.8683 12.24H34.9323V27H29.3523V7.632H44.8683V12.24ZM57.7805 7.344C59.8445 7.344 61.6445 7.752 63.1805 8.568C64.7165 9.384 65.9045 10.548 66.7445 12.06C67.5845 13.572 68.0045 15.336 68.0045 17.352C68.0045 19.32 67.6085 21.06 66.8165 22.572C66.0245 24.06 64.9085 25.224 63.4685 26.064C62.0285 26.88 60.3725 27.288 58.5005 27.288C56.0285 27.288 54.0965 26.508 52.7045 24.948V33.984H47.0885V17.388C47.0885 15.396 47.5325 13.644 48.4205 12.132C49.3085 10.62 50.5565 9.444 52.1645 8.604C53.7725 7.764 55.6445 7.344 57.7805 7.344ZM57.5285 22.68C58.9925 22.68 60.1805 22.188 61.0925 21.204C62.0045 20.22 62.4605 18.936 62.4605 17.352C62.4605 15.744 62.0045 14.448 61.0925 13.464C60.1805 12.456 58.9925 11.952 57.5285 11.952C56.0645 11.952 54.8765 12.444 53.9645 13.428C53.0765 14.412 52.6325 15.708 52.6325 17.316C52.6325 18.924 53.0765 20.22 53.9645 21.204C54.8525 22.188 56.0405 22.68 57.5285 22.68ZM81.0337 27.288C78.9937 27.288 77.1577 26.868 75.5257 26.028C73.9177 25.164 72.6577 23.976 71.7457 22.464C70.8337 20.952 70.3777 19.236 70.3777 17.316C70.3777 15.396 70.8337 13.68 71.7457 12.168C72.6577 10.656 73.9177 9.48 75.5257 8.64C77.1577 7.776 78.9937 7.344 81.0337 7.344C83.0737 7.344 84.8977 7.776 86.5057 8.64C88.1137 9.48 89.3737 10.656 90.2857 12.168C91.1977 13.68 91.6537 15.396 91.6537 17.316C91.6537 19.236 91.1977 20.952 90.2857 22.464C89.3737 23.976 88.1137 25.164 86.5057 26.028C84.8977 26.868 83.0737 27.288 81.0337 27.288ZM81.0337 22.68C82.4737 22.68 83.6497 22.2 84.5617 21.24C85.4977 20.256 85.9657 18.948 85.9657 17.316C85.9657 15.684 85.4977 14.388 84.5617 13.428C83.6497 12.444 82.4737 11.952 81.0337 11.952C79.5937 11.952 78.4057 12.444 77.4697 13.428C76.5337 14.388 76.0657 15.684 76.0657 17.316C76.0657 18.948 76.5337 20.256 77.4697 21.24C78.4057 22.2 79.5937 22.68 81.0337 22.68ZM95.04 14.616H105.228V19.116H95.04V14.616ZM136.854 17.244C136.854 20.244 135.846 22.62 133.83 24.372C131.838 26.1 128.982 27.096 125.262 27.36V33.984H120.114V27.36C116.394 27.096 113.526 26.112 111.51 24.408C109.518 22.68 108.522 20.292 108.522 17.244C108.522 14.244 109.506 11.916 111.474 10.26C113.466 8.604 116.346 7.644 120.114 7.38V0.287998H125.262V7.38C128.982 7.644 131.838 8.616 133.83 10.296C135.846 11.976 136.854 14.292 136.854 17.244ZM113.958 17.244C113.958 18.972 114.45 20.304 115.434 21.24C116.418 22.176 117.978 22.764 120.114 23.004V11.736C117.978 11.952 116.418 12.516 115.434 13.428C114.45 14.316 113.958 15.588 113.958 17.244ZM125.262 23.004C127.398 22.764 128.958 22.176 129.942 21.24C130.95 20.304 131.454 18.972 131.454 17.244C131.454 15.588 130.95 14.316 129.942 13.428C128.958 12.516 127.398 11.952 125.262 11.736V23.004ZM159.773 7.632V27H154.409V24.732C153.689 25.572 152.801 26.208 151.745 26.64C150.713 27.072 149.609 27.288 148.433 27.288C145.889 27.288 143.861 26.556 142.349 25.092C140.861 23.628 140.117 21.456 140.117 18.576V7.632H145.733V17.748C145.733 20.868 147.041 22.428 149.657 22.428C151.025 22.428 152.117 21.996 152.933 21.132C153.749 20.244 154.157 18.936 154.157 17.208V7.632H159.773ZM165.126 7.632H170.706V15.192H179.13V7.632H184.746V27H179.13V19.764H170.706V27H165.126V7.632ZM209.67 7.632V27H204.306V24.768C202.914 26.448 200.898 27.288 198.258 27.288C196.434 27.288 194.778 26.88 193.29 26.064C191.826 25.248 190.674 24.084 189.834 22.572C188.994 21.06 188.574 19.308 188.574 17.316C188.574 15.324 188.994 13.572 189.834 12.06C190.674 10.548 191.826 9.384 193.29 8.568C194.778 7.752 196.434 7.344 198.258 7.344C200.73 7.344 202.662 8.124 204.054 9.684V7.632H209.67ZM199.23 22.68C200.646 22.68 201.822 22.2 202.758 21.24C203.694 20.256 204.162 18.948 204.162 17.316C204.162 15.684 203.694 14.388 202.758 13.428C201.822 12.444 200.646 11.952 199.23 11.952C197.79 11.952 196.602 12.444 195.666 13.428C194.73 14.388 194.262 15.684 194.262 17.316C194.262 18.948 194.73 20.256 195.666 21.24C196.602 22.2 197.79 22.68 199.23 22.68ZM214.977 7.632H220.557V15.192H228.981V7.632H234.597V27H228.981V19.764H220.557V27H214.977V7.632ZM249.189 27.288C247.125 27.288 245.265 26.868 243.609 26.028C241.977 25.164 240.693 23.976 239.757 22.464C238.845 20.952 238.389 19.236 238.389 17.316C238.389 15.396 238.845 13.68 239.757 12.168C240.693 10.656 241.977 9.48 243.609 8.64C245.265 7.776 247.125 7.344 249.189 7.344C251.229 7.344 253.005 7.776 254.517 8.64C256.053 9.48 257.169 10.692 257.865 12.276L253.509 14.616C252.501 12.84 251.049 11.952 249.153 11.952C247.689 11.952 246.477 12.432 245.517 13.392C244.557 14.352 244.077 15.66 244.077 17.316C244.077 18.972 244.557 20.28 245.517 21.24C246.477 22.2 247.689 22.68 249.153 22.68C251.073 22.68 252.525 21.792 253.509 20.016L257.865 22.392C257.169 23.928 256.053 25.128 254.517 25.992C253.005 26.856 251.229 27.288 249.189 27.288Z" fill="url(#paint0_linear)"/>
<defs>
<linearGradient id="paint0_linear" x1="92" y1="36" x2="-1.99999" y2="36" gradientUnits="userSpaceOnUse">
<stop stop-color="#F4F4F4"/>
<stop stop-color="#FCB11B"/>
</linearGradient>
</defs>
</svg>
