<svg id="Capa_1" enable-background="new 0 0 512 512" height="512" viewBox="0 0 512 512" width="512" xmlns="http://www.w3.org/2000/svg"><g><g><g><g><path d="m463.343 146.394 39.479-37.642c11.775-11.783 11.792-31.048.037-42.81-11.755-11.763-31.007-11.746-42.782.037l-3.293 3.295.034-39.028c.013-16.65-13.588-30.26-30.227-30.246-16.638.014-30.263 13.648-30.278 30.298l-.031 35.675c-11.761-11.699-30.964-11.664-42.718.098-11.775 11.783-11.792 31.048-.037 42.81l37.844 37.276 32.659 18.742z" fill="#c3f463"/><path d="m502.858 65.942c-11.755-11.763-31.007-11.746-42.782.037l-3.293 3.295.034-39.028c.014-16.112-12.723-29.376-28.624-30.203v162.897l35.149-16.545 39.479-37.642c11.776-11.784 11.792-31.048.037-42.811z" fill="#82d157"/></g><g><g><path d="m448.943 146.862-41.377.036c-.979.001-1.951.03-2.916.088-30.854 1.833-51.831 32.31-43.401 62.049l53.808 189.837c5.175 10.589 20.264 10.576 25.457-.022l54.573-189.803c8.723-30.339-13.162-61.27-44.682-62.164-.486-.015-.973-.022-1.462-.021z" fill="#e7aa60"/><path d="m450.404 146.882c-.486-.014-.973-.02-1.461-.02l-20.75.018v259.912c4.928-.145 9.794-2.788 12.32-7.942l54.573-189.803c8.723-30.34-13.162-61.271-44.682-62.165z" fill="#e48d3c"/></g><path d="m398.678 185.065c-.003 0-.007 0-.01 0l-38.127.026c-1.69 7.637-1.596 15.815.708 23.942l1.717 6.057 35.723-.025c8.279-.006 14.986-6.726 14.98-15.01-.007-8.281-6.717-14.99-14.991-14.99z" fill="#e48d3c"/><path d="m495.96 205.458-46.078.028c-8.279.005-14.986 6.725-14.981 15.009.005 8.281 6.715 14.991 14.99 14.991h.009l37.591-.023 7.596-26.417c.343-1.196.622-2.392.873-3.588z" fill="#de6e48"/></g></g><g><path d="m192.842 174.128c0-17.356-10.227-32.314-24.975-39.193 10.828-7.855 17.877-20.607 17.877-35.013 0-23.874-19.341-43.227-43.199-43.227-1.755 0-3.482.117-5.183.321 1.457-4.332 2.258-8.965 2.258-13.788 0-23.874-19.341-43.228-43.199-43.228s-43.199 19.354-43.199 43.227c0 4.823.801 9.456 2.258 13.788-1.701-.204-3.428-.321-5.183-.321-23.858 0-43.199 19.354-43.199 43.227 0 14.406 7.049 27.158 17.877 35.013-14.748 6.88-24.975 21.838-24.975 39.194 0 19.061 12.334 35.229 29.448 40.978-2.988 5.877-4.684 12.523-4.684 19.569 0 23.874 19.341 43.227 43.199 43.227 1.943 0 3.854-.134 5.729-.383v92.484h45.458v-92.484c1.874.249 3.785.383 5.728.383 23.858 0 43.199-19.354 43.199-43.227 0-7.046-1.695-13.692-4.684-19.569 17.114-5.749 29.449-21.917 29.449-40.978z" fill="#6eb771"/><path d="m192.842 174.128c0-17.356-10.227-32.314-24.975-39.193 10.828-7.855 17.877-20.607 17.877-35.013 0-23.874-19.341-43.227-43.199-43.227-1.755 0-3.482.117-5.183.321 1.457-4.332 2.258-8.965 2.258-13.788 0-23.874-19.341-43.228-43.199-43.228v370.002h22.729v-92.484c1.874.249 3.785.383 5.728.383 23.858 0 43.199-19.354 43.199-43.227 0-7.046-1.695-13.692-4.684-19.569 17.114-5.749 29.449-21.916 29.449-40.977z" fill="#508353"/></g><g><g><path d="m221.331 133.968 20.834-64.633c3.287-10.198 12.773-17.11 23.481-17.11 15.955 0 27.673 14.912 23.991 30.446-3.966 16.729-7.338 38.152-5.548 58.441z" fill="#82d157"/><path d="m265.647 52.225c-3.457 0-6.783.73-9.818 2.049v83.621l28.261 3.217c-1.79-20.289 1.582-41.711 5.548-58.441 3.682-15.534-8.036-30.446-23.991-30.446z" fill="#6eb771"/></g><g><path d="m182.85 349.029c-31.348 0-56.76-25.412-56.76-56.759v-103.296c0-31.347 25.412-56.759 56.759-56.759 31.347 0 56.76 25.412 56.76 56.76v103.295c.001 31.347-25.411 56.759-56.759 56.759z" fill="#c72e58"/><path d="m328.808 349.029c-31.348 0-56.76-25.412-56.76-56.76v-103.295c0-31.347 25.412-56.759 56.759-56.759 31.348 0 56.76 25.412 56.76 56.76v103.295c0 31.347-25.412 56.759-56.759 56.759z" fill="#b01e52"/><g><path d="m255.825 360.393c-31.348 0-56.76-25.412-56.76-56.759v-130.552c0-31.347 25.412-56.76 56.759-56.76 31.347 0 56.76 25.412 56.76 56.76v130.551c0 31.348-25.412 56.76-56.759 56.76z" fill="#cd5957"/><path d="m255.829 116.323v244.07c31.346-.002 56.755-25.43 56.755-56.797v-130.476c0-31.367-25.41-56.795-56.755-56.797z" fill="#c72e58"/></g></g></g></g><g><g><path d="m134.658 307.503h243.02v104.688h-243.02z" fill="#523e45"/><path d="m255.825 307.503h121.854v104.688h-121.854z" fill="#413038"/></g><g><path d="m.336 285.213v211.787c0 8.284 6.711 15 14.99 15h481.684c8.279 0 14.99-6.716 14.99-15v-211.787c0-8.284-6.711-15-14.99-15h-481.684c-8.278 0-14.99 6.716-14.99 15zm342.044 74.278c0 18.502-14.989 33.501-33.479 33.501h-105.466c-18.49 0-33.479-14.999-33.479-33.501 0-18.502 14.989-33.501 33.479-33.501h105.467c18.489 0 33.478 14.999 33.478 33.501z" fill="#654d54"/><path d="m497.01 270.213h-241.185v55.777h53.077c18.49 0 33.479 14.999 33.479 33.501 0 18.502-14.989 33.501-33.479 33.501h-53.077v119.008h241.185c8.279 0 14.99-6.716 14.99-15v-211.787c0-8.284-6.711-15-14.99-15z" fill="#523e45"/></g></g></g></svg>