<?xml version="1.0" encoding="iso-8859-1"?>
<!-- Generator: Adobe Illustrator 21.0.0, SVG Export Plug-In . SVG Version: 6.00 Build 0)  -->
<svg xmlns="http://www.w3.org/2000/svg" xmlns:xlink="http://www.w3.org/1999/xlink" version="1.1" id="Capa_1" x="0px" y="0px" viewBox="0 0 512 512" style="enable-background:new 0 0 512 512;" xml:space="preserve" width="512" height="512">
<g>
	<g>
		<g>
			<g>
				<g>
					<g>
						<g>
							<g>
								<g>
									<g>
										<circle style="fill:#B15F4C;" cx="256" cy="256" r="256"/>
									</g>
								</g>
							</g>
						</g>
					</g>
				</g>
			</g>
		</g>
	</g>
	<path style="fill:#7F4233;" d="M261.646,511.929c123.592-2.676,225.605-92.932,246.451-211.187L274.906,67.55l-43.385,54.321   l-69.158,22.701l62.814,62.813l-83.255,184.819L261.646,511.929z"/>
	<path style="fill:#5ACC6D;" d="M127.337,96.829c5.907,24.901,25.241,46.833,52.73,56.1c27.49,9.267,56.156,3.516,75.932-12.727   c-5.907-24.901-25.241-46.833-52.73-56.1S147.114,80.586,127.337,96.829z"/>
	<path style="fill:#3DA547;" d="M255.939,139.963c-5.974-24.802-25.268-46.625-52.67-55.862   c-27.49-9.267-56.156-3.516-75.932,12.728L255.939,139.963z"/>
	<rect x="237.716" y="67.55" style="fill:#D79B8C;" width="37.189" height="98.811"/>
	<rect x="256.779" y="67.55" style="fill:#C38778;" width="18.126" height="98.812"/>
	<path style="fill:#FE6A16;" d="M424.665,294.813c0,73.185-93.573,149.635-166.759,149.635s-98.269-76.45-98.269-149.635   s59.328-132.514,132.514-132.514S424.665,221.628,424.665,294.813z"/>
	<path style="fill:#F9B01C;" d="M91.402,294.813c0,73.185,93.573,149.635,166.759,149.635s98.269-76.45,98.269-149.635   s-59.328-132.514-132.514-132.514S91.402,221.628,91.402,294.813z"/>
	<path style="fill:#FE8205;" d="M256.779,166.409v278.016c0.46,0.006,0.923,0.022,1.381,0.022c73.185,0,98.269-76.45,98.269-149.635   C356.429,232.972,314.067,181.028,256.779,166.409z"/>
</g>















</svg>
